<svg width="1797.4" height="902.0000000000001" xmlns="http://www.w3.org/2000/svg" xmlns:xlink="http://www.w3.org/1999/xlink"><line x1="240.375" y1="7.0" x2="46.0" y2="31.0" style="stroke:black; stroke-width:1px;" />
<line x1="46.0" y1="38.0" x2="46.0" y2="62.0" style="stroke:black; stroke-width:1px;" />
<line x1="46.0" y1="69.0" x2="15.0" y2="93.0" style="stroke:black; stroke-width:1px;" />
<line x1="46.0" y1="69.0" x2="51.5" y2="93.0" style="stroke:black; stroke-width:1px;" />
<line x1="51.5" y1="100.0" x2="26.0" y2="124.0" style="stroke:black; stroke-width:1px;" />
<line x1="26.0" y1="131.0" x2="26.0" y2="155.0" style="stroke:black; stroke-width:1px;" />
<line x1="51.5" y1="100.0" x2="51.5" y2="124.0" style="stroke:black; stroke-width:1px;" />
<line x1="51.5" y1="100.0" x2="77.0" y2="124.0" style="stroke:black; stroke-width:1px;" />
<line x1="77.0" y1="131.0" x2="51.5" y2="155.0" style="stroke:black; stroke-width:1px;" />
<line x1="77.0" y1="131.0" x2="77.0" y2="155.0" style="stroke:black; stroke-width:1px;" />
<line x1="77.0" y1="162.0" x2="77.0" y2="186.0" style="stroke:black; stroke-width:1px;" />
<line x1="77.0" y1="131.0" x2="102.5" y2="155.0" style="stroke:black; stroke-width:1px;" />
<line x1="46.0" y1="69.0" x2="77.0" y2="93.0" style="stroke:black; stroke-width:1px;" />
<line x1="240.375" y1="7.0" x2="214.5" y2="31.0" style="stroke:black; stroke-width:1px;" />
<line x1="214.5" y1="38.0" x2="214.5" y2="62.0" style="stroke:black; stroke-width:1px;" />
<line x1="214.5" y1="69.0" x2="181.25" y2="93.0" style="stroke:black; stroke-width:1px;" />
<line x1="181.25" y1="100.0" x2="154.5" y2="124.0" style="stroke:black; stroke-width:1px;" />
<line x1="154.5" y1="131.0" x2="128.0" y2="155.0" style="stroke:black; stroke-width:1px;" />
<line x1="128.0" y1="162.0" x2="128.0" y2="186.0" style="stroke:black; stroke-width:1px;" />
<line x1="154.5" y1="131.0" x2="154.5" y2="155.0" style="stroke:black; stroke-width:1px;" />
<line x1="154.5" y1="131.0" x2="181.0" y2="155.0" style="stroke:black; stroke-width:1px;" />
<line x1="181.0" y1="162.0" x2="155.5" y2="186.0" style="stroke:black; stroke-width:1px;" />
<line x1="181.0" y1="162.0" x2="181.0" y2="186.0" style="stroke:black; stroke-width:1px;" />
<line x1="181.0" y1="193.0" x2="153.0" y2="217.0" style="stroke:black; stroke-width:1px;" />
<line x1="153.0" y1="224.0" x2="140.25" y2="248.0" style="stroke:black; stroke-width:1px;" />
<line x1="153.0" y1="224.0" x2="165.75" y2="248.0" style="stroke:black; stroke-width:1px;" />
<line x1="165.75" y1="255.0" x2="165.75" y2="279.0" style="stroke:black; stroke-width:1px;" />
<line x1="181.0" y1="193.0" x2="181.0" y2="217.0" style="stroke:black; stroke-width:1px;" />
<line x1="181.0" y1="193.0" x2="209.0" y2="217.0" style="stroke:black; stroke-width:1px;" />
<line x1="209.0" y1="224.0" x2="209.0" y2="248.0" style="stroke:black; stroke-width:1px;" />
<line x1="181.0" y1="162.0" x2="206.5" y2="186.0" style="stroke:black; stroke-width:1px;" />
<line x1="181.25" y1="100.0" x2="181.25" y2="124.0" style="stroke:black; stroke-width:1px;" />
<line x1="181.25" y1="100.0" x2="208.0" y2="124.0" style="stroke:black; stroke-width:1px;" />
<line x1="208.0" y1="131.0" x2="208.0" y2="155.0" style="stroke:black; stroke-width:1px;" />
<line x1="214.5" y1="69.0" x2="211.25" y2="93.0" style="stroke:black; stroke-width:1px;" />
<line x1="214.5" y1="69.0" x2="231.75" y2="93.0" style="stroke:black; stroke-width:1px;" />
<line x1="214.5" y1="69.0" x2="247.75" y2="93.0" style="stroke:black; stroke-width:1px;" />
<line x1="240.375" y1="7.0" x2="304.75" y2="31.0" style="stroke:black; stroke-width:1px;" />
<line x1="304.75" y1="38.0" x2="304.75" y2="62.0" style="stroke:black; stroke-width:1px;" />
<line x1="304.75" y1="69.0" x2="273.75" y2="93.0" style="stroke:black; stroke-width:1px;" />
<line x1="304.75" y1="69.0" x2="310.25" y2="93.0" style="stroke:black; stroke-width:1px;" />
<line x1="310.25" y1="100.0" x2="310.25" y2="124.0" style="stroke:black; stroke-width:1px;" />
<line x1="304.75" y1="69.0" x2="335.75" y2="93.0" style="stroke:black; stroke-width:1px;" />
<line x1="240.375" y1="7.0" x2="392.75" y2="31.0" style="stroke:black; stroke-width:1px;" />
<line x1="392.75" y1="38.0" x2="392.75" y2="62.0" style="stroke:black; stroke-width:1px;" />
<line x1="392.75" y1="69.0" x2="361.75" y2="93.0" style="stroke:black; stroke-width:1px;" />
<line x1="392.75" y1="69.0" x2="398.25" y2="93.0" style="stroke:black; stroke-width:1px;" />
<line x1="398.25" y1="100.0" x2="365.625" y2="124.0" style="stroke:black; stroke-width:1px;" />
<line x1="365.625" y1="131.0" x2="326.875" y2="155.0" style="stroke:black; stroke-width:1px;" />
<line x1="326.875" y1="162.0" x2="300.375" y2="186.0" style="stroke:black; stroke-width:1px;" />
<line x1="300.375" y1="193.0" x2="273.875" y2="217.0" style="stroke:black; stroke-width:1px;" />
<line x1="273.875" y1="224.0" x2="273.875" y2="248.0" style="stroke:black; stroke-width:1px;" />
<line x1="300.375" y1="193.0" x2="300.375" y2="217.0" style="stroke:black; stroke-width:1px;" />
<line x1="300.375" y1="193.0" x2="326.875" y2="217.0" style="stroke:black; stroke-width:1px;" />
<line x1="326.875" y1="224.0" x2="326.875" y2="248.0" style="stroke:black; stroke-width:1px;" />
<line x1="326.875" y1="162.0" x2="326.875" y2="186.0" style="stroke:black; stroke-width:1px;" />
<line x1="326.875" y1="162.0" x2="353.375" y2="186.0" style="stroke:black; stroke-width:1px;" />
<line x1="353.375" y1="193.0" x2="353.375" y2="217.0" style="stroke:black; stroke-width:1px;" />
<line x1="365.625" y1="131.0" x2="365.625" y2="155.0" style="stroke:black; stroke-width:1px;" />
<line x1="365.625" y1="131.0" x2="404.375" y2="155.0" style="stroke:black; stroke-width:1px;" />
<line x1="404.375" y1="162.0" x2="378.875" y2="186.0" style="stroke:black; stroke-width:1px;" />
<line x1="404.375" y1="162.0" x2="404.375" y2="186.0" style="stroke:black; stroke-width:1px;" />
<line x1="404.375" y1="193.0" x2="404.375" y2="217.0" style="stroke:black; stroke-width:1px;" />
<line x1="404.375" y1="162.0" x2="429.875" y2="186.0" style="stroke:black; stroke-width:1px;" />
<line x1="398.25" y1="100.0" x2="398.25" y2="124.0" style="stroke:black; stroke-width:1px;" />
<line x1="398.25" y1="100.0" x2="430.875" y2="124.0" style="stroke:black; stroke-width:1px;" />
<line x1="430.875" y1="131.0" x2="430.875" y2="155.0" style="stroke:black; stroke-width:1px;" />
<line x1="392.75" y1="69.0" x2="423.75" y2="93.0" style="stroke:black; stroke-width:1px;" />
<line x1="240.375" y1="7.0" x2="434.75" y2="31.0" style="stroke:black; stroke-width:1px;" />
<rect x="425.875" y="155.0" width="10.0" height="14.0" style="fill:orange; stroke:rgb(0,0,0);" rx="1"/>
<text x="427" y="164" style="font-family:sans-serif;font-size:10px;">
x
</text>
<rect x="140.0" y="124.0" width="29.0" height="14.0" style="fill:orange; stroke:rgb(0,0,0);" rx="1"/>
<text x="142" y="133" style="font-family:sans-serif;font-size:10px;">
expr
</text>
<rect x="203.5" y="248.0" width="11.0" height="14.0" style="fill:orange; stroke:rgb(0,0,0);" rx="1"/>
<text x="205" y="257" style="font-family:sans-serif;font-size:10px;">
4
</text>
<rect x="374.875" y="186.0" width="8.0" height="14.0" style="fill:orange; stroke:rgb(0,0,0);" rx="1"/>
<text x="376" y="195" style="font-family:sans-serif;font-size:10px;">
(
</text>
<rect x="0.0" y="93.0" width="30.0" height="14.0" style="fill:orange; stroke:rgb(0,0,0);" rx="1"/>
<text x="2" y="102" style="font-family:sans-serif;font-size:10px;">
print
</text>
<rect x="66.0" y="186.0" width="22.0" height="14.0" style="fill:orange; stroke:rgb(0,0,0);" rx="1"/>
<text x="68" y="195" style="font-family:sans-serif;font-size:10px;">
1/4
</text>
<rect x="243.75" y="93.0" width="8.0" height="14.0" style="fill:orange; stroke:rgb(0,0,0);" rx="1"/>
<text x="245" y="102" style="font-family:sans-serif;font-size:10px;">
;
</text>
<rect x="136.25" y="248.0" width="8.0" height="14.0" style="fill:orange; stroke:rgb(0,0,0);" rx="1"/>
<text x="138" y="257" style="font-family:sans-serif;font-size:10px;">
-
</text>
<rect x="177.25" y="124.0" width="8.0" height="14.0" style="fill:orange; stroke:rgb(0,0,0);" rx="1"/>
<text x="179" y="133" style="font-family:sans-serif;font-size:10px;">
-
</text>
<rect x="289.75" y="62.0" width="30.0" height="14.0" style="fill:orange; stroke:rgb(0,0,0);" rx="1"/>
<text x="291" y="71" style="font-family:sans-serif;font-size:10px;">
print
</text>
<rect x="338.875" y="186.0" width="29.0" height="14.0" style="fill:orange; stroke:rgb(0,0,0);" rx="1"/>
<text x="340" y="195" style="font-family:sans-serif;font-size:10px;">
expr
</text>
<rect x="202.5" y="186.0" width="8.0" height="14.0" style="fill:orange; stroke:rgb(0,0,0);" rx="1"/>
<text x="204" y="195" style="font-family:sans-serif;font-size:10px;">
)
</text>
<rect x="193.5" y="124.0" width="29.0" height="14.0" style="fill:orange; stroke:rgb(0,0,0);" rx="1"/>
<text x="195" y="133" style="font-family:sans-serif;font-size:10px;">
expr
</text>
<rect x="62.5" y="155.0" width="29.0" height="14.0" style="fill:orange; stroke:rgb(0,0,0);" rx="1"/>
<text x="64" y="164" style="font-family:sans-serif;font-size:10px;">
expr
</text>
<rect x="154.75" y="279.0" width="22.0" height="14.0" style="fill:orange; stroke:rgb(0,0,0);" rx="1"/>
<text x="156" y="288" style="font-family:sans-serif;font-size:10px;">
2/3
</text>
<rect x="213.875" y="0.0" width="53.0" height="14.0" style="fill:orange; stroke:rgb(0,0,0);" rx="1"/>
<text x="215" y="9" style="font-family:sans-serif;font-size:10px;">
program
</text>
<rect x="37.0" y="93.0" width="29.0" height="14.0" style="fill:orange; stroke:rgb(0,0,0);" rx="1"/>
<text x="39" y="102" style="font-family:sans-serif;font-size:10px;">
expr
</text>
<rect x="377.75" y="62.0" width="30.0" height="14.0" style="fill:orange; stroke:rgb(0,0,0);" rx="1"/>
<text x="379" y="71" style="font-family:sans-serif;font-size:10px;">
print
</text>
<rect x="47.5" y="124.0" width="8.0" height="14.0" style="fill:orange; stroke:rgb(0,0,0);" rx="1"/>
<text x="49" y="133" style="font-family:sans-serif;font-size:10px;">
-
</text>
<rect x="389.875" y="155.0" width="29.0" height="14.0" style="fill:orange; stroke:rgb(0,0,0);" rx="1"/>
<text x="391" y="164" style="font-family:sans-serif;font-size:10px;">
expr
</text>
<rect x="331.75" y="93.0" width="8.0" height="14.0" style="fill:orange; stroke:rgb(0,0,0);" rx="1"/>
<text x="333" y="102" style="font-family:sans-serif;font-size:10px;">
;
</text>
<rect x="47.5" y="155.0" width="8.0" height="14.0" style="fill:orange; stroke:rgb(0,0,0);" rx="1"/>
<text x="49" y="164" style="font-family:sans-serif;font-size:10px;">
(
</text>
<rect x="419.75" y="93.0" width="8.0" height="14.0" style="fill:orange; stroke:rgb(0,0,0);" rx="1"/>
<text x="421" y="102" style="font-family:sans-serif;font-size:10px;">
;
</text>
<rect x="259.375" y="217.0" width="29.0" height="14.0" style="fill:orange; stroke:rgb(0,0,0);" rx="1"/>
<text x="261" y="226" style="font-family:sans-serif;font-size:10px;">
expr
</text>
<rect x="359.125" y="155.0" width="13.0" height="14.0" style="fill:orange; stroke:rgb(0,0,0);" rx="1"/>
<text x="361" y="164" style="font-family:sans-serif;font-size:10px;">
+
</text>
<rect x="295.375" y="217.0" width="10.0" height="14.0" style="fill:orange; stroke:rgb(0,0,0);" rx="1"/>
<text x="297" y="226" style="font-family:sans-serif;font-size:10px;">
*
</text>
<rect x="379.75" y="31.0" width="26.0" height="14.0" style="fill:orange; stroke:rgb(0,0,0);" rx="1"/>
<text x="381" y="40" style="font-family:sans-serif;font-size:10px;">
stat
</text>
<rect x="389.875" y="186.0" width="29.0" height="14.0" style="fill:orange; stroke:rgb(0,0,0);" rx="1"/>
<text x="391" y="195" style="font-family:sans-serif;font-size:10px;">
expr
</text>
<rect x="11.5" y="124.0" width="29.0" height="14.0" style="fill:orange; stroke:rgb(0,0,0);" rx="1"/>
<text x="13" y="133" style="font-family:sans-serif;font-size:10px;">
expr
</text>
<rect x="62.5" y="124.0" width="29.0" height="14.0" style="fill:orange; stroke:rgb(0,0,0);" rx="1"/>
<text x="64" y="133" style="font-family:sans-serif;font-size:10px;">
expr
</text>
<rect x="258.75" y="93.0" width="30.0" height="14.0" style="fill:orange; stroke:rgb(0,0,0);" rx="1"/>
<text x="260" y="102" style="font-family:sans-serif;font-size:10px;">
print
</text>
<rect x="346.75" y="93.0" width="30.0" height="14.0" style="fill:orange; stroke:rgb(0,0,0);" rx="1"/>
<text x="348" y="102" style="font-family:sans-serif;font-size:10px;">
print
</text>
<rect x="268.875" y="248.0" width="10.0" height="14.0" style="fill:orange; stroke:rgb(0,0,0);" rx="1"/>
<text x="270" y="257" style="font-family:sans-serif;font-size:10px;">
x
</text>
<rect x="179.0" y="62.0" width="71.0" height="14.0" style="fill:orange; stroke:rgb(0,0,0);" rx="1"/>
<text x="181" y="71" style="font-family:sans-serif;font-size:10px;">
assignment
</text>
<rect x="291.75" y="31.0" width="26.0" height="14.0" style="fill:orange; stroke:rgb(0,0,0);" rx="1"/>
<text x="293" y="40" style="font-family:sans-serif;font-size:10px;">
stat
</text>
<rect x="31.0" y="62.0" width="30.0" height="14.0" style="fill:orange; stroke:rgb(0,0,0);" rx="1"/>
<text x="33" y="71" style="font-family:sans-serif;font-size:10px;">
print
</text>
<rect x="201.5" y="31.0" width="26.0" height="14.0" style="fill:orange; stroke:rgb(0,0,0);" rx="1"/>
<text x="203" y="40" style="font-family:sans-serif;font-size:10px;">
stat
</text>
<rect x="226.75" y="93.0" width="10.0" height="14.0" style="fill:orange; stroke:rgb(0,0,0);" rx="1"/>
<text x="228" y="102" style="font-family:sans-serif;font-size:10px;">
x
</text>
<rect x="285.875" y="186.0" width="29.0" height="14.0" style="fill:orange; stroke:rgb(0,0,0);" rx="1"/>
<text x="287" y="195" style="font-family:sans-serif;font-size:10px;">
expr
</text>
<rect x="117.0" y="186.0" width="22.0" height="14.0" style="fill:orange; stroke:rgb(0,0,0);" rx="1"/>
<text x="119" y="195" style="font-family:sans-serif;font-size:10px;">
4/2
</text>
<rect x="295.75" y="93.0" width="29.0" height="14.0" style="fill:orange; stroke:rgb(0,0,0);" rx="1"/>
<text x="297" y="102" style="font-family:sans-serif;font-size:10px;">
expr
</text>
<rect x="98.5" y="155.0" width="8.0" height="14.0" style="fill:orange; stroke:rgb(0,0,0);" rx="1"/>
<text x="100" y="164" style="font-family:sans-serif;font-size:10px;">
)
</text>
<rect x="194.5" y="217.0" width="29.0" height="14.0" style="fill:orange; stroke:rgb(0,0,0);" rx="1"/>
<text x="196" y="226" style="font-family:sans-serif;font-size:10px;">
expr
</text>
<rect x="113.5" y="155.0" width="29.0" height="14.0" style="fill:orange; stroke:rgb(0,0,0);" rx="1"/>
<text x="115" y="164" style="font-family:sans-serif;font-size:10px;">
expr
</text>
<rect x="138.5" y="217.0" width="29.0" height="14.0" style="fill:orange; stroke:rgb(0,0,0);" rx="1"/>
<text x="140" y="226" style="font-family:sans-serif;font-size:10px;">
expr
</text>
<rect x="166.75" y="93.0" width="29.0" height="14.0" style="fill:orange; stroke:rgb(0,0,0);" rx="1"/>
<text x="168" y="102" style="font-family:sans-serif;font-size:10px;">
expr
</text>
<rect x="312.375" y="155.0" width="29.0" height="14.0" style="fill:orange; stroke:rgb(0,0,0);" rx="1"/>
<text x="314" y="164" style="font-family:sans-serif;font-size:10px;">
expr
</text>
<rect x="312.375" y="217.0" width="29.0" height="14.0" style="fill:orange; stroke:rgb(0,0,0);" rx="1"/>
<text x="314" y="226" style="font-family:sans-serif;font-size:10px;">
expr
</text>
<rect x="151.25" y="248.0" width="29.0" height="14.0" style="fill:orange; stroke:rgb(0,0,0);" rx="1"/>
<text x="153" y="257" style="font-family:sans-serif;font-size:10px;">
expr
</text>
<rect x="351.125" y="124.0" width="29.0" height="14.0" style="fill:orange; stroke:rgb(0,0,0);" rx="1"/>
<text x="353" y="133" style="font-family:sans-serif;font-size:10px;">
expr
</text>
<rect x="321.875" y="248.0" width="10.0" height="14.0" style="fill:orange; stroke:rgb(0,0,0);" rx="1"/>
<text x="323" y="257" style="font-family:sans-serif;font-size:10px;">
x
</text>
<rect x="412.75" y="31.0" width="44.0" height="14.0" style="fill:orange; stroke:rgb(0,0,0);" rx="1"/>
<text x="414" y="40" style="font-family:sans-serif;font-size:10px;">
&lt;EOF&gt;
</text>
<rect x="73.0" y="93.0" width="8.0" height="14.0" style="fill:orange; stroke:rgb(0,0,0);" rx="1"/>
<text x="75" y="102" style="font-family:sans-serif;font-size:10px;">
;
</text>
<rect x="322.875" y="186.0" width="8.0" height="14.0" style="fill:orange; stroke:rgb(0,0,0);" rx="1"/>
<text x="324" y="195" style="font-family:sans-serif;font-size:10px;">
:
</text>
<rect x="348.375" y="217.0" width="10.0" height="14.0" style="fill:orange; stroke:rgb(0,0,0);" rx="1"/>
<text x="350" y="226" style="font-family:sans-serif;font-size:10px;">
x
</text>
<rect x="174.5" y="217.0" width="13.0" height="14.0" style="fill:orange; stroke:rgb(0,0,0);" rx="1"/>
<text x="176" y="226" style="font-family:sans-serif;font-size:10px;">
+
</text>
<rect x="202.5" y="155.0" width="11.0" height="14.0" style="fill:orange; stroke:rgb(0,0,0);" rx="1"/>
<text x="204" y="164" style="font-family:sans-serif;font-size:10px;">
2
</text>
<rect x="149.5" y="155.0" width="10.0" height="14.0" style="fill:orange; stroke:rgb(0,0,0);" rx="1"/>
<text x="151" y="164" style="font-family:sans-serif;font-size:10px;">
*
</text>
<rect x="202.75" y="93.0" width="17.0" height="14.0" style="fill:orange; stroke:rgb(0,0,0);" rx="1"/>
<text x="204" y="102" style="font-family:sans-serif;font-size:10px;">
-&gt;
</text>
<rect x="305.25" y="124.0" width="10.0" height="14.0" style="fill:orange; stroke:rgb(0,0,0);" rx="1"/>
<text x="307" y="133" style="font-family:sans-serif;font-size:10px;">
x
</text>
<rect x="399.375" y="217.0" width="10.0" height="14.0" style="fill:orange; stroke:rgb(0,0,0);" rx="1"/>
<text x="401" y="226" style="font-family:sans-serif;font-size:10px;">
x
</text>
<rect x="394.25" y="124.0" width="8.0" height="14.0" style="fill:orange; stroke:rgb(0,0,0);" rx="1"/>
<text x="396" y="133" style="font-family:sans-serif;font-size:10px;">
-
</text>
<rect x="166.5" y="155.0" width="29.0" height="14.0" style="fill:orange; stroke:rgb(0,0,0);" rx="1"/>
<text x="168" y="164" style="font-family:sans-serif;font-size:10px;">
expr
</text>
<rect x="166.5" y="186.0" width="29.0" height="14.0" style="fill:orange; stroke:rgb(0,0,0);" rx="1"/>
<text x="168" y="195" style="font-family:sans-serif;font-size:10px;">
expr
</text>
<rect x="425.875" y="186.0" width="8.0" height="14.0" style="fill:orange; stroke:rgb(0,0,0);" rx="1"/>
<text x="427" y="195" style="font-family:sans-serif;font-size:10px;">
)
</text>
<rect x="151.5" y="186.0" width="8.0" height="14.0" style="fill:orange; stroke:rgb(0,0,0);" rx="1"/>
<text x="153" y="195" style="font-family:sans-serif;font-size:10px;">
(
</text>
<rect x="416.375" y="124.0" width="29.0" height="14.0" style="fill:orange; stroke:rgb(0,0,0);" rx="1"/>
<text x="418" y="133" style="font-family:sans-serif;font-size:10px;">
expr
</text>
<rect x="15.0" y="155.0" width="22.0" height="14.0" style="fill:orange; stroke:rgb(0,0,0);" rx="1"/>
<text x="17" y="164" style="font-family:sans-serif;font-size:10px;">
1/4
</text>
<rect x="33.0" y="31.0" width="26.0" height="14.0" style="fill:orange; stroke:rgb(0,0,0);" rx="1"/>
<text x="35" y="40" style="font-family:sans-serif;font-size:10px;">
stat
</text>
<rect x="383.75" y="93.0" width="29.0" height="14.0" style="fill:orange; stroke:rgb(0,0,0);" rx="1"/>
<text x="385" y="102" style="font-family:sans-serif;font-size:10px;">
expr
</text>
</svg>